<?xml version="1.0" encoding="UTF-8"?>
<svg id="_レイヤー_1" data-name="レイヤー_1" xmlns="http://www.w3.org/2000/svg" version="1.1" viewBox="0 0 165 183">
  <!-- Generator: Adobe Illustrator 30.3.0, SVG Export Plug-In . SVG Version: 2.1.3 Build 182)  -->
  <path d="M86.28,174.74l.54-6.9s8.86-5.34,9.2-10.76c.42-6.71-.73-24.2-.73-24.2l-3.31-5.33.08-1.33,3.41.21c1.67.1,3.12-1.18,3.22-2.85.1-1.67-1.18-3.12-2.85-3.22l-3.41-.21.42-6.83c1-16.03-14.35-18.72-21-19.14l-38.63-2.4c-19.95-1.24-23.99,10.98-24.32,16.32l-.42,6.83-3.5-.22c-1.67-.1-3.12,1.18-3.22,2.85-.1,1.67,1.18,3.12,2.85,3.22l3.5.22-.08,1.33-3.94,4.88s-3.31,17.22-3.73,23.93c-.34,5.42,7.79,11.82,7.79,11.82l-.54,8.62c-.22,3.58,2.52,6.69,6.1,6.91l5.57.35c3.58.22,6.69-2.52,6.91-6.1l.5-8.07,41.48,2.58-.5,8.07s-3.54.68-3.75,1.73,3.98.84,3.98.84h18.65s12.82-1.23-.29-3.13ZM15.14,142.15c-3.05-.19-5.37-2.82-5.18-5.87.19-3.05,2.82-5.37,5.87-5.18,3.05.19,5.37,2.82,5.18,5.87-.19,3.05-2.82,5.37-5.87,5.18ZM14.62,118.36s.03-.49.61-9.86c.64-10.26,11.29-10.78,17.61-10.39,6.31.39,15.06.94,15.06.94l7.4.46s9.86.61,16.17,1.01c6.31.39,15.71,2.16,15.07,12.42-.58,9.37-.61,9.85-.61,9.86l-71.31-4.43ZM81.03,146.25c-3.05-.19-5.37-2.82-5.18-5.87.19-3.05,2.82-5.37,5.87-5.18,3.05.19,5.37,2.82,5.18,5.87-.19,3.05-2.82,5.37-5.87,5.18Z" fill="#fff"/>
  <path d="M119.74,21.16c.52,1,2.02,2.19,9,2.48.9.04,1.78.01,2.62-.07-1.5,2.12-4.6,4.12-8.45,3.95-.67-.03-1.32.52-1.34,1.24s.52,1.32,1.24,1.34c.19,0,.38.01.57.01,5.09,0,8.75-2.9,10.37-5.45.37-.58.66-1.17.85-1.75,2.56-.83,4.61-2.33,5.93-4.39.67-1.06,1.09-2.19,1.24-3.32,2.76-.76,4.79-2.03,5.88-3.73,1.01-1.59,1.08-3.41.19-5.11-1.81-3.45-7.05-5.69-14.02-5.98-.69-.03-1.31.52-1.34,1.24-.03.71.52,1.32,1.24,1.34,7.12.3,10.82,2.66,11.83,4.59.46.87.43,1.73-.08,2.53-.57.91-1.81,1.81-3.82,2.46-.13-.53-.32-1.05-.58-1.55-1.31-2.5-3.98-3.95-7.52-4.1-6.11-.25-12.75,1.45-12.89,4.63-.11,2.69,3.86,4.11,12.51,4.47,2.12.09,4.08,0,5.84-.23-.15.47-.37.93-.65,1.38-.81,1.27-2.01,2.26-3.52,2.93-.08-.35-.2-.69-.37-1.01-.56-1.06-1.83-2.35-4.78-2.48-3.95-.16-8.6.68-9.82,2.6-.4.63-.44,1.35-.1,1.98ZM139.11,13.13c-1.63.26-3.57.38-5.85.28-7.63-.32-9.55-1.47-9.96-1.83.69-.81,4.58-2.34,10.13-2.11,2.58.11,4.48,1.07,5.34,2.71.16.3.27.61.35.94ZM122.59,20.19c1.14-.54,3.73-1.17,6.96-1.03.77.03,2.14.22,2.6,1.09.09.17.14.36.16.58-1.07.2-2.23.28-3.47.23-3.7-.15-5.46-.57-6.25-.87Z" fill="#fff"/>
  <path d="M162.68,52.49l-13.88-13.88c-2.62-2.62-6.87-2.62-9.49,0-.43.43-.78.89-1.07,1.39-2.46-3.1-6.26-5.09-10.51-5.09s-8.05,1.99-10.51,5.09c-.29-.5-.64-.97-1.07-1.39-2.62-2.62-6.87-2.62-9.49,0l-13.88,13.88c-2.62,2.62-2.62,6.87,0,9.49l13.98,13.98,4.19,7.27v92.68c0,3.71,3.01,6.71,6.71,6.71s6.71-3.01,6.71-6.71v-50.36h6.71v50.36c0,3.71,3.01,6.71,6.71,6.71s6.71-3.01,6.71-6.71v-92.68l4.19-7.27,13.98-13.98c2.62-2.62,2.62-6.87,0-9.49ZM140.55,65.13h-25.65l-7.89-7.89,7.38-7.38c.76,6.69,6.45,11.91,13.34,11.91s12.59-5.22,13.34-11.91l7.38,7.38-7.89,7.89Z" fill="#fff"/>
</svg>