<?xml version="1.0" encoding="UTF-8"?>
<svg id="_レイヤー_1" data-name="レイヤー_1" xmlns="http://www.w3.org/2000/svg" version="1.1" viewBox="0 0 138 141">
  <!-- Generator: Adobe Illustrator 30.3.0, SVG Export Plug-In . SVG Version: 2.1.3 Build 182)  -->
  <g>
    <path d="M19.66,55.79v-24.27h65.07l14.99-19.4H9.96C4.6,12.12.26,16.46.26,21.82v35.22c3.24-1.98,7-3.08,10.88-3.08,2.94,0,5.84.63,8.51,1.83Z" fill="#fff"/>
    <path d="M109.74,121.6H19.66v-17.27L.35,92.68s-.06-.04-.09-.06v38.68c0,5.36,4.34,9.7,9.7,9.7h109.49c5.36,0,9.7-4.34,9.7-9.7V42.27l-19.4,25.11v54.23Z" fill="#fff"/>
  </g>
  <path d="M56.48,113.28c-1.96,0-3.94-.52-5.72-1.59L5.4,84.31c-5.24-3.16-6.93-9.98-3.76-15.22,3.16-5.24,9.98-6.93,15.22-3.76l36.9,22.27L118.1,4.31c3.74-4.84,10.7-5.74,15.55-2,4.84,3.74,5.74,10.7,2,15.55l-70.38,91.11c-2.17,2.81-5.45,4.31-8.78,4.31Z" fill="#fff"/>
</svg>