<?xml version="1.0" encoding="UTF-8"?>
<svg id="_レイヤー_1" xmlns="http://www.w3.org/2000/svg" version="1.1" viewBox="0 0 145 145">
  <!-- Generator: Adobe Illustrator 30.3.0, SVG Export Plug-In . SVG Version: 2.1.3 Build 182)  -->
  <path d="M43.84,75.04l-8.58,25.75c-.84,2.49-.17,5.25,1.68,7.13s4.61,2.52,7.13,1.68l25.75-8.58c2.38-.78,4.55-2.15,6.35-3.91l48.51-48.54-28.42-28.42-48.51,48.54c-1.77,1.77-3.13,3.94-3.91,6.35h0Z" fill="#fff"/>
  <path d="M109.86,125.45H19.71V35.3h47.28l19.4-19.41H10.01c-5.36,0-9.71,4.34-9.71,9.7v109.56c0,5.36,4.35,9.71,9.71,9.71h109.56c5.36,0,9.71-4.35,9.71-9.71V58.12l-19.41,19.42v47.91h0Z" fill="#fff"/>
  <path d="M139.93,10.3l-5.42-5.39c-6.35-6.35-16.61-6.35-22.96,0l-8.73,8.7,28.39,28.39,8.73-8.73c6.35-6.35,6.35-16.61,0-22.96h0Z" fill="#fff"/>
</svg>