<?xml version="1.0" encoding="UTF-8"?>
<svg id="_レイヤー_1" data-name="レイヤー_1" xmlns="http://www.w3.org/2000/svg" version="1.1" viewBox="0 0 100 58">
  <!-- Generator: Adobe Illustrator 30.3.0, SVG Export Plug-In . SVG Version: 2.1.3 Build 182)  -->
  <path d="M95.45,12.09l3.67-1.78c.5-.24.72-.84.49-1.34l-2.27-5.08c-.23-.51-.82-.74-1.33-.53l-22.38,9.43c-.13.05-.26.08-.4.08h-19.95c-.44,0-.84-.28-.97-.7l-3.66-11.1c-.14-.42-.53-.7-.97-.7h-9.88c-.57,0-1.03.46-1.03,1.03v15.72c0,.57-.46,1.03-1.03,1.03h-1.48c-.57,0-1.03-.46-1.03-1.03V1.57c0-.57-.46-1.03-1.03-1.03H15.04c-2.29,0-4.37,1.32-5.35,3.38L1.87,20.4c-1.03,2.19-1.57,4.58-1.57,7v16.78c0,1.84,1.49,3.34,3.34,3.34h7.21c.49,0,.91.34,1,.82.08.41.18.82.3,1.23.11.36.25.71.4,1.06.07.17.14.34.23.51.24.5.52.97.83,1.43l.31.46c.23.29.46.57.71.84.37.41.77.8,1.2,1.16.28.23.58.45.89.66.62.42,1.27.78,1.96,1.07,2.86,1.2,6.09,1.2,8.95,0l.39-.18c.5-.23.98-.5,1.43-.8l.32-.22.51-.39c.21-.16.42-.33.61-.51.27-.24.53-.51.77-.79.33-.35.63-.72.9-1.11l.33-.49c.33-.53.62-1.09.86-1.67.31-.73.54-1.49.69-2.27.09-.47.52-.8,1-.8h34.68c.49,0,.91.34,1,.82.08.41.18.82.3,1.23.11.36.24.71.39,1.06l.23.51c.25.5.53.97.84,1.43l.31.46c.26.34.56.69.85,1.01.36.39.75.75,1.17,1.09.25.2.51.39.77.56.62.42,1.27.77,1.96,1.07,1.42.59,2.94.9,4.48.9.78,0,1.56-.08,2.33-.23.37-.09.74-.17,1.1-.29s.71-.24,1.06-.39c.67-.3,1.31-.65,1.91-1.06.3-.2.6-.43.89-.66.29-.23.69-.61,1.01-.94.31-.34.61-.69.89-1.06.16-.2.3-.41.43-.63.14-.2.26-.41.39-.63l.34-.64c0-.14.13-.29.19-.43.2-.46.37-.94.51-1.43l.17-.7v-.17l.13-.83h3.1c.57,0,1.03-.46,1.03-1.03v-16.89c0-.57-.46-1.03-1.03-1.03h-.95c-.57,0-1.03-.46-1.03-1.03v-14.58c0-.39.22-.75.58-.92ZM7.86,23.37c-.84.21-1.54-.65-1.17-1.43l6.96-14.96c.54-1.15,1.69-1.88,2.95-1.88h11.47c.57,0,1.03.46,1.03,1.03v11.22c0,.47-.32.88-.78,1l-20.45,5.04ZM30.28,47.55c-.58,3.9-4.22,6.59-8.12,6-3.1-.46-5.54-2.9-6-6-.09-.47-.14-.95-.14-1.43,0-3.98,3.22-7.2,7.2-7.2s7.2,3.22,7.2,7.2c0,.48-.05.96-.14,1.43ZM89.53,47.55c-.61,3.89-4.26,6.56-8.15,5.95-3.07-.48-5.47-2.88-5.95-5.95-.1-.47-.15-.95-.14-1.43,0-3.97,3.22-7.19,7.19-7.19s7.19,3.22,7.19,7.19c-.02.48-.09.96-.21,1.43h.07Z" fill="#D3170A"/>
</svg>