<?xml version="1.0" encoding="UTF-8"?>
<svg id="_レイヤー_1" data-name="レイヤー_1" xmlns="http://www.w3.org/2000/svg" version="1.1" viewBox="0 0 216 124">
  <!-- Generator: Adobe Illustrator 30.3.0, SVG Export Plug-In . SVG Version: 2.1.3 Build 182)  -->
  <path d="M205.94,25.57l7.91-3.83c1.08-.52,1.54-1.8,1.05-2.89l-4.9-10.95c-.49-1.1-1.77-1.6-2.87-1.13l-48.23,20.31c-.27.11-.56.17-.86.17h-42.98c-.95,0-1.8-.61-2.1-1.52l-7.89-23.91c-.3-.91-1.14-1.52-2.1-1.52h-21.3c-1.22,0-2.21.99-2.21,2.21v33.88c0,1.22-.99,2.21-2.21,2.21h-3.18c-1.22,0-2.21-.99-2.21-2.21V2.89c0-1.22-.99-2.21-2.21-2.21h-36.98c-4.93,0-9.42,2.84-11.53,7.29L4.29,43.47c-2.22,4.71-3.38,9.86-3.38,15.07v36.15c0,3.97,3.22,7.19,7.19,7.19h15.54c1.05,0,1.96.73,2.16,1.76.17.89.39,1.77.65,2.64.24.78.53,1.54.86,2.28.15.37.31.74.49,1.11.52,1.07,1.11,2.1,1.78,3.08l.68.98c.49.62.98,1.23,1.54,1.81.8.89,1.66,1.72,2.58,2.49.61.51,1.25.98,1.91,1.42,1.33.9,2.74,1.67,4.21,2.31,6.17,2.58,13.12,2.58,19.29,0l.84-.38c1.08-.49,2.11-1.07,3.09-1.73l.69-.47,1.11-.83c.46-.34.9-.71,1.32-1.11.59-.53,1.15-1.09,1.66-1.69.71-.74,1.36-1.55,1.94-2.4l.71-1.05c.71-1.15,1.33-2.35,1.85-3.6.67-1.58,1.17-3.22,1.49-4.89.19-1.01,1.12-1.72,2.15-1.72h74.73c1.05,0,1.96.73,2.16,1.76.17.89.39,1.77.65,2.64.25.77.52,1.54.83,2.28l.49,1.11c.53,1.07,1.13,2.1,1.81,3.08l.68.98c.56.74,1.2,1.48,1.83,2.17.78.85,1.61,1.63,2.52,2.34.54.42,1.1.84,1.65,1.21,1.33.89,2.74,1.67,4.21,2.31,3.06,1.27,6.34,1.93,9.66,1.94,1.68,0,3.36-.17,5.01-.49.8-.18,1.6-.37,2.37-.62.77-.25,1.54-.52,2.28-.83,1.44-.64,2.82-1.4,4.12-2.28.65-.43,1.29-.92,1.91-1.41.62-.49,1.48-1.32,2.18-2.03.68-.72,1.31-1.48,1.91-2.28.34-.43.64-.88.92-1.35.31-.43.55-.89.83-1.35l.74-1.38c0-.31.28-.62.4-.92.43-1,.8-2.03,1.11-3.08l.37-1.51v-.37l.28-1.78h6.68c1.22,0,2.21-.99,2.21-2.21v-36.4c0-1.22-.99-2.21-2.21-2.21h-2.04c-1.22,0-2.21-.99-2.21-2.21v-31.42c0-.85.48-1.62,1.25-1.99ZM17.2,49.87c-1.8.44-3.31-1.4-2.53-3.08L29.67,14.55c1.16-2.47,3.64-4.06,6.37-4.06h24.71c1.22,0,2.21.99,2.21,2.21v24.17c0,1.02-.69,1.9-1.68,2.15l-44.07,10.85ZM65.5,101.97c-1.26,8.4-9.08,14.19-17.49,12.94-6.69-1-11.94-6.25-12.94-12.94-.2-1.01-.3-2.04-.31-3.08,0-8.57,6.95-15.52,15.52-15.52s15.52,6.95,15.52,15.52c0,1.03-.11,2.06-.31,3.08ZM193.18,101.97c-1.31,8.39-9.18,14.13-17.57,12.82-6.61-1.03-11.79-6.21-12.82-12.82-.21-1.01-.31-2.04-.31-3.08,0-8.56,6.94-15.5,15.5-15.5s15.5,6.94,15.5,15.5c-.04,1.04-.2,2.07-.46,3.08h.15Z" fill="#fff"/>
</svg>