<?xml version="1.0" encoding="UTF-8"?>
<svg id="_レイヤー_1" data-name="レイヤー_1" xmlns="http://www.w3.org/2000/svg" version="1.1" viewBox="0 0 108 117">
  <!-- Generator: Adobe Illustrator 30.3.0, SVG Export Plug-In . SVG Version: 2.1.3 Build 182)  -->
  <path d="M52.41,82.99C28.42,48.21,23.97,44.64,23.97,31.86,23.97,14.35,38.16.16,55.67.16s31.7,14.19,31.7,31.7c0,12.78-4.45,16.35-28.44,51.13-1.57,2.27-4.94,2.27-6.52,0ZM55.67,45.07c7.29,0,13.21-5.91,13.21-13.21s-5.91-13.21-13.21-13.21-13.21,5.91-13.21,13.21,5.91,13.21,13.21,13.21Z" fill="#888"/>
  <path d="M106.78,96.01l-14.83-14.83c-1.37-1.37-3.6-1.37-4.97,0-1.37,1.37-1.37,3.6,0,4.97l8.83,8.83H29.11c-1.58-6.4-7.36-11.17-14.24-11.17-8.1,0-14.68,6.59-14.68,14.68s6.59,14.68,14.68,14.68c6.88,0,12.66-4.77,14.24-11.17h66.71l-8.83,8.83c-1.37,1.37-1.37,3.6,0,4.97.69.69,1.59,1.03,2.49,1.03s1.8-.34,2.49-1.03l14.83-14.83c1.37-1.37,1.37-3.6,0-4.97ZM14.87,106.15c-4.22,0-7.65-3.43-7.65-7.65s3.43-7.65,7.65-7.65,7.65,3.43,7.65,7.65-3.43,7.65-7.65,7.65Z" fill="#888"/>
</svg>