<?xml version="1.0" encoding="UTF-8"?>
<svg id="_レイヤー_1" data-name="レイヤー_1" xmlns="http://www.w3.org/2000/svg" version="1.1" viewBox="0 0 117 74">
  <!-- Generator: Adobe Illustrator 30.3.0, SVG Export Plug-In . SVG Version: 2.1.3 Build 182)  -->
  <path d="M112.55.34H4.45C2.2.34.38,2.16.38,4.41v65.18c0,2.25,1.82,4.07,4.07,4.07h108.1c2.25,0,4.07-1.82,4.07-4.07V4.41c0-2.25-1.82-4.07-4.07-4.07ZM42.09,27.92c-1.73-.19-3.09-.27-5.66-.27h-9.98l-1.23,5.64h8.29c2.53,0,3.46-.04,5.82-.27l-1.54,7.1c-1.76-.19-3.05-.27-5.7-.27h-8.29l-1.4,6.45h9.9c2.92,0,4.62-.08,6.32-.27l-1.56,7.18c-1.61-.19-2.97-.27-6.27-.27h-12.09c-2.92,0-4,.04-5.67.12.57-1.54.95-2.96,1.53-5.6l4.56-20.95c.52-2.38.74-3.72.91-5.6,1.56.08,2.63.11,5.62.11h12.24c2.61,0,3.93-.08,5.78-.27l-1.56,7.18ZM62.87,27.81l-4.21,19.34c-.5,2.3-.79,3.99-.96,5.8h-8.48c.62-1.8,1.04-3.38,1.57-5.8l4.21-19.34h-4.53c-2.42,0-3.08.04-5.85.27l1.6-7.33c1.23.15,3.32.27,5.66.27h16.81c2.69,0,4.24-.08,6.05-.27l-1.6,7.33c-1.68-.19-3.17-.27-5.93-.27h-4.34ZM86.59,47c2.11,0,4.1-.88,5.55-2.42.85-.92,1.29-1.69,1.87-3.3l7.72,1.19c-1.44,3.26-2.69,5.14-4.72,7.02-2.97,2.72-7.01,4.18-11.66,4.18s-8.32-1.46-10.44-4.22c-2.21-2.88-2.85-7.37-1.73-12.51,1.13-5.22,3.71-9.63,7.39-12.63,3.21-2.57,7.4-3.99,11.89-3.99,4.95,0,8.46,1.69,10.23,5.03.89,1.57,1.23,2.99,1.23,5.26l-8.24,1.53c.03-3.49-1.63-5.22-4.93-5.22-4.68,0-8.21,3.68-9.59,10.02-1.36,6.26.65,10.05,5.41,10.05Z" fill="#888"/>
</svg>