<?xml version="1.0" encoding="UTF-8"?>
<svg id="_レイヤー_1" data-name="レイヤー_1" xmlns="http://www.w3.org/2000/svg" version="1.1" viewBox="0 0 200 200">
  <!-- Generator: Adobe Illustrator 30.3.0, SVG Export Plug-In . SVG Version: 2.1.3 Build 182)  -->
  <path d="M200,102.23c0-8.23-.68-14.23-2.15-20.45h-95.82v37.12h56.24c-1.13,9.22-7.25,23.11-20.85,32.45l-.19,1.24,30.29,23,2.09.2c19.29-17.44,30.39-43.11,30.39-73.55Z" fill="#4285f4"/>
  <path d="M102.05,200c27.55,0,50.67-8.89,67.57-24.23l-32.2-24.44c-8.62,5.89-20.18,10-35.37,10-26.25,0-49.6-16.71-58.05-41.56l-1.2.1-31.5,23.89-.41,1.13c16.78,32.66,51.25,55.11,91.16,55.11Z" fill="#34a853"/>
  <path d="M44,119.77c-2.24-6.35-3.39-13.04-3.43-19.77,0-6.89,1.25-13.55,3.28-19.77l-.05-1.34-31.89-24.27-1.05.49C3.73,69,.01,84.39,0,100c0,16.11,3.96,31.34,10.88,44.89l33.11-25.12h0Z" fill="#fbbc05"/>
  <path d="M102.05,38.66c19.16,0,32.08,8.11,39.45,14.89l28.79-27.55C152.61,9.89,129.59,0,102.05,0,62.13,0,27.66,22.45,10.88,55.11l33,25.12c8.53-24.85,31.89-41.54,58.16-41.56Z" fill="#eb4335"/>
</svg>