<?xml version="1.0" encoding="UTF-8"?>
<svg id="_レイヤー_1" xmlns="http://www.w3.org/2000/svg" version="1.1" viewBox="0 0 87 76">
  <!-- Generator: Adobe Illustrator 30.3.0, SVG Export Plug-In . SVG Version: 2.1.3 Build 182)  -->
  <path d="M43.5.13C19.59.13.12,19.58.12,43.5c0,12.86,5.63,24.42,14.54,32.37h57.67c8.91-7.95,14.54-19.52,14.54-32.37C86.88,19.58,67.42.13,43.5.13ZM76.11,51.1c-1.07,4.57-3.07,8.77-5.79,12.41l-19.02-14.19c-1.79,2.38-4.6,3.95-7.8,3.95-2.63,0-5-1.06-6.75-2.76l2.52-1.09c.95.66,2.07,1.1,3.3,1.22,3.82.37,7.22-2.42,7.59-6.24,0-.06,0-.11,0-.17.32-2.99-1.4-5.93-4.36-7.02-.57-.21-1.15-.33-1.73-.38-.05,0-.1-.02-.16-.02-3.82-.37-7.22,2.42-7.59,6.24-.05.49-.04.97,0,1.45l-14.47,11.69c-.13.11-.17.3-.08.45.09.15.27.21.43.14l8.23-3.55-13.78,10.28c-2.72-3.64-4.73-7.84-5.79-12.41l7.2-1.31-.59-3.24-7.2,1.31c-.19-1.43-.32-2.88-.32-4.36,0-4.09.78-8,2.13-11.62l6.72,2.87,1.29-3.02-6.72-2.87c2.4-4.91,5.95-9.13,10.31-12.34l4.02,6.09,2.74-1.81-4.02-6.1c4.55-2.71,9.79-4.35,15.4-4.63v7.31h3.29v-7.31c5.61.27,10.85,1.92,15.4,4.63l-4.03,6.1,2.74,1.81,4.03-6.09c4.36,3.21,7.91,7.43,10.31,12.34l-6.72,2.87,1.29,3.02,6.72-2.87c1.35,3.63,2.12,7.53,2.12,11.62,0,1.48-.13,2.93-.31,4.36l-7.2-1.31-.59,3.24,7.2,1.31Z" fill="#1c2948"/>
</svg>