<?xml version="1.0" encoding="UTF-8"?>
<svg id="_レイヤー_1" data-name="レイヤー_1" xmlns="http://www.w3.org/2000/svg" version="1.1" viewBox="0 0 154 130">
  <!-- Generator: Adobe Illustrator 30.3.0, SVG Export Plug-In . SVG Version: 2.1.3 Build 182)  -->
  <path d="M122.4.16H31.6c-5.9,0-10.69,4.79-10.69,10.69v98.06c0,3.87,3.14,7.01,7.01,7.01h.37v11.16c0,1.52,1.24,2.76,2.76,2.76h15.9c1.52,0,2.76-1.24,2.76-2.76v-11.16h54.59v11.16c0,1.52,1.24,2.76,2.76,2.76h15.9c1.52,0,2.76-1.24,2.76-2.76v-11.16h.36c3.88,0,7.02-3.14,7.02-7.02V10.85c0-5.9-4.79-10.69-10.69-10.69ZM55.64,96.02c0,1.18-.96,2.13-2.13,2.13h-23.47c-1.18,0-2.13-.96-2.13-2.13v-11.11c0-1.33,1.21-2.35,2.52-2.1,3.8.71,11.8,2.01,23.24,2.88,1.12.08,1.98,1.01,1.98,2.13v8.2ZM126.09,96.02c0,1.18-.96,2.13-2.13,2.13h-23.47c-1.18,0-2.13-.96-2.13-2.13v-8.2c0-1.12.87-2.04,1.98-2.13,11.44-.86,19.43-2.17,23.24-2.88,1.31-.25,2.52.76,2.52,2.1v11.11ZM126.09,47.56s-18.4,4.24-49.09,4.24-49.09-4.24-49.09-4.24V10.85c0-1.02.41-1.94,1.08-2.61s1.59-1.08,2.61-1.08h90.81c1.02,0,1.94.41,2.61,1.08s1.08,1.59,1.08,2.61v36.71Z" fill="#fff"/>
  <rect x=".05" y="21.82" width="17" height="28.95" rx="2.79" ry="2.79" fill="#fff"/>
  <rect x="136.95" y="21.82" width="17" height="28.95" rx="2.79" ry="2.79" fill="#fff"/>
</svg>