<?xml version="1.0" encoding="UTF-8"?>
<svg id="_レイヤー_1" data-name="レイヤー_1" xmlns="http://www.w3.org/2000/svg" version="1.1" viewBox="0 0 60 70">
  <!-- Generator: Adobe Illustrator 30.3.0, SVG Export Plug-In . SVG Version: 2.1.3 Build 182)  -->
  <path d="M2.7,69.74c-1.37,0-2.48-1.11-2.48-2.48s1.11-2.48,2.48-2.48h4.96v-4.96c0-8.6,4.93-16.44,12.69-20.15,1.44-.69,2.2-1.87,2.2-2.93v-3.47c0-1.06-.76-2.24-2.2-2.93-7.76-3.71-12.69-11.55-12.69-20.15v-4.96H2.7C1.33,5.22.22,4.11.22,2.74S1.33.26,2.7.26h54.59c1.37,0,2.48,1.11,2.48,2.48s-1.11,2.48-2.48,2.48h-4.96v4.96c0,8.6-4.93,16.44-12.69,20.15-1.44.69-2.2,1.87-2.2,2.93v3.47c0,1.06.76,2.24,2.2,2.93,7.76,3.71,12.69,11.55,12.69,20.15v4.96h4.96c1.37,0,2.48,1.11,2.48,2.48s-1.11,2.48-2.48,2.48H2.7ZM12.63,5.22v4.96c0,2.66.6,5.19,1.67,7.44h31.39c1.07-2.26,1.67-4.78,1.67-7.44v-4.96H12.63ZM27.52,36.74c0,3.48-2.37,6.13-5.02,7.4-6.03,2.89-9.87,8.98-9.87,15.67,0,0,4.3-6.45,14.89-7.34v-15.73ZM32.48,36.74v15.73c10.59.9,14.89,7.34,14.89,7.34,0-6.69-3.84-12.78-9.87-15.67-2.65-1.27-5.02-3.92-5.02-7.4h0Z" fill="#2fbf71"/>
</svg>