<?xml version="1.0" encoding="UTF-8"?>
<svg id="_レイヤー_1" xmlns="http://www.w3.org/2000/svg" version="1.1" viewBox="0 0 73 44">
  <!-- Generator: Adobe Illustrator 30.3.0, SVG Export Plug-In . SVG Version: 2.1.3 Build 182)  -->
  <path d="M49.88,42.37l.2-2.51s3.23-1.94,3.35-3.92c.15-2.44-.27-8.81-.27-8.81l-1.2-1.94.03-.48,1.24.08c.61.04,1.14-.43,1.17-1.04.04-.61-.43-1.14-1.04-1.17l-1.24-.08.15-2.49c.36-5.84-5.22-6.82-7.64-6.97l-14.06-.87c-7.26-.45-8.73,4-8.85,5.94l-.15,2.49-1.27-.08c-.61-.04-1.14.43-1.17,1.04-.04.61.43,1.14,1.04,1.17l1.27.08-.03.48-1.43,1.78s-1.2,6.27-1.36,8.71c-.12,1.97,2.84,4.3,2.84,4.3l-.2,3.14c-.08,1.3.92,2.44,2.22,2.52l2.03.13c1.3.08,2.44-.92,2.52-2.22l.18-2.94,15.1.94-.18,2.94s-1.29.25-1.36.63,1.45.31,1.45.31h6.79s4.67-.45-.11-1.14l-.02-.02ZM23.98,30.5c-1.11-.07-1.95-1.03-1.89-2.14.07-1.11,1.03-1.95,2.14-1.89s1.95,1.03,1.89,2.14c-.07,1.11-1.03,1.95-2.14,1.89ZM23.79,21.84s.01-.18.22-3.59c.23-3.73,4.11-3.93,6.41-3.78,2.3.14,5.48.34,5.48.34l2.69.17s3.59.22,5.89.37c2.3.14,5.72.79,5.49,4.52-.21,3.41-.22,3.59-.22,3.59l-25.96-1.61h0ZM47.97,31.99c-1.11-.07-1.95-1.03-1.89-2.14.07-1.11,1.03-1.95,2.14-1.89,1.11.07,1.95,1.03,1.89,2.14-.07,1.11-1.03,1.95-2.14,1.89Z" fill="#fff"/>
  <path d="M65.92,0H7.08C3.17,0,0,3.17,0,7.08v33.85c0,1.69,1.37,3.06,3.06,3.06h0c1.57,0,2.84-1.27,2.84-2.84V7.08c0-.65.53-1.18,1.18-1.18h58.83c.65,0,1.18.53,1.18,1.18v33.85c0,1.69,1.37,3.06,3.06,3.06h0c1.57,0,2.85-1.28,2.85-2.85V7.08c0-3.91-3.17-7.08-7.08-7.08Z" fill="#fff"/>
</svg>