<?xml version="1.0" encoding="UTF-8"?>
<svg id="_レイヤー_1" data-name="レイヤー_1" xmlns="http://www.w3.org/2000/svg" version="1.1" viewBox="0 0 106 55">
  <!-- Generator: Adobe Illustrator 30.3.0, SVG Export Plug-In . SVG Version: 2.1.3 Build 182)  -->
  <path d="M105.55,28.57l-.16-4.17c-.16-4.24-2.89-7.94-6.89-9.35l-16.36-5.77c-11.31-3.99-31.74,2.67-40.96,6.75-.54.24-.98.44-1.5.9s-2.86,4.34-3.44,5.99l-1.18,3.36c-.34.96.16,2,1.12,2.34l6.11,2.15c-.99,3.47.53,7.14,3.56,8.93h-13.04v-12.58c0-.84-.68-1.52-1.52-1.52h-1.47V9.34l3.08-1.49c1.15-.56,1.65-1.93,1.13-3.09l-1.55-3.46c-.34-.75-1.21-1.1-1.97-.78L8.35,9.84H2.59c-1.2,0-2.16.97-2.16,2.16v30.44c0,1.12.91,2.03,2.03,2.03h3.46c.08.69.23,1.37.43,2.04.11.36.24.71.39,1.06l.23.51c.25.5.53.97.84,1.43l.31.46c.28.37.6.74.91,1.08.28.3.57.58.88.84s.65.51.99.74c.62.42,1.27.77,1.96,1.07,1.42.59,2.94.9,4.48.9.78,0,1.56-.08,2.33-.23.37-.09.74-.17,1.1-.29.36-.11.71-.24,1.06-.39.67-.3,1.31-.65,1.91-1.06.3-.2.6-.43.89-.66.29-.23.69-.61,1.01-.94.31-.34.61-.69.89-1.06.16-.2.3-.41.43-.63.14-.2.26-.41.39-.63l.34-.64c0-.14.13-.29.19-.43.2-.46.37-.94.51-1.43l.17-.7v-.17l.13-.83h27.45v-4.84h-2.3c1.42-.83,2.58-2.1,3.26-3.71l11.17,3.94,13.17,4.65c-1.13,3.97,1.01,8.19,4.95,9.58,3.94,1.39,8.25-.56,9.86-4.35l2.1.74c.96.34,2-.16,2.34-1.12l3.03-8.59c1.39-3.93,2.02-8.09,1.86-12.25ZM24.45,44.52c-.61,3.89-4.26,6.56-8.15,5.95-3.07-.48-5.47-2.88-5.95-5.95-.1-.47-.15-.95-.14-1.43,0-3.97,3.22-7.19,7.19-7.19s7.19,3.22,7.19,7.19c-.02.48-.09.96-.21,1.43h.07ZM54.9,33.46c-.44,3.67-4.37,5.64-7.55,3.88-1.76-.98-2.81-2.98-2.57-4.98.44-3.67,4.38-5.64,7.55-3.89,1.76.98,2.81,2.98,2.57,4.99ZM80.17,26.36l-25.9-9.14c9.81-3.48,19.76-5.85,26.31-3.54l3.61,1.27-4.02,11.4ZM94.04,47.27c-.44,3.67-4.37,5.64-7.55,3.88-1.77-.98-2.81-2.98-2.57-4.99.44-3.67,4.38-5.64,7.56-3.88,1.76.98,2.81,2.98,2.56,4.99ZM100.4,33.5l-16.92-5.97,4.02-11.4,9.23,3.25c2.29.81,3.82,2.99,3.78,5.42l-.12,8.69Z" fill="#71a9f7"/>
</svg>