<?xml version="1.0" encoding="UTF-8"?>
<svg id="_レイヤー_1" data-name="レイヤー_1" xmlns="http://www.w3.org/2000/svg" version="1.1" viewBox="0 0 249 129">
  <!-- Generator: Adobe Illustrator 30.3.0, SVG Export Plug-In . SVG Version: 2.1.3 Build 182)  -->
  <path d="M248.92,67.04l-.38-9.87c-.39-10.03-6.85-18.81-16.32-22.15l-38.74-13.67c-26.78-9.45-75.16,6.32-96.99,15.97-1.28.57-2.33,1.04-3.56,2.13s-6.76,10.27-8.14,14.18l-2.8,7.95c-.8,2.26.39,4.74,2.65,5.54l14.46,5.1c-2.34,8.22,1.25,16.9,8.43,21.15h-30.87v-29.79c0-1.99-1.62-3.61-3.61-3.61h-3.49V21.5l7.29-3.53c2.73-1.32,3.91-4.56,2.67-7.33l-3.66-8.18c-.8-1.78-2.87-2.6-4.67-1.84L18.78,22.69H5.15C2.32,22.69.02,24.99.02,27.82v72.08c0,2.65,2.15,4.8,4.8,4.8h8.18c.2,1.64.54,3.25,1.01,4.83.27.84.57,1.69.91,2.5l.54,1.22c.58,1.17,1.25,2.3,1.99,3.38l.74,1.08c.66.87,1.42,1.75,2.16,2.55.65.71,1.34,1.38,2.09,1.99s1.54,1.22,2.34,1.75c1.46.98,3.01,1.83,4.63,2.54,3.36,1.4,6.97,2.12,10.61,2.13,1.85,0,3.69-.19,5.51-.54.88-.2,1.76-.41,2.6-.68.85-.27,1.69-.57,2.5-.91,1.58-.7,3.1-1.54,4.53-2.5.71-.47,1.42-1.01,2.1-1.55.68-.54,1.62-1.45,2.4-2.23.74-.79,1.44-1.63,2.1-2.5.37-.47.71-.97,1.01-1.49.34-.47.61-.98.91-1.49l.81-1.52c0-.34.3-.68.44-1.01.47-1.1.88-2.23,1.22-3.38l.41-1.66v-.41l.3-1.96h64.99v-11.46h-5.44c3.35-1.97,6.12-4.97,7.73-8.78l26.44,9.33,31.18,11c-2.67,9.39,2.39,19.39,11.71,22.68,9.33,3.29,19.54-1.32,23.35-10.31l4.97,1.75c2.26.8,4.74-.39,5.54-2.65l7.18-20.34c3.28-9.3,4.77-19.15,4.39-29.01ZM56.91,104.8c-1.44,9.22-10.09,15.53-19.31,14.09-7.26-1.13-12.95-6.83-14.09-14.09-.23-1.11-.34-2.24-.34-3.38,0-9.41,7.63-17.04,17.04-17.04s17.04,7.63,17.04,17.04c-.05,1.14-.22,2.27-.51,3.38h.17ZM128.99,78.62c-1.04,8.68-10.36,13.36-17.88,9.2-4.18-2.31-6.65-7.06-6.08-11.8,1.04-8.69,10.36-13.36,17.89-9.2,4.18,2.31,6.65,7.06,6.08,11.8ZM188.82,61.8l-61.33-21.63c23.24-8.25,46.78-13.86,62.31-8.38l8.55,3.01-9.52,27ZM221.68,111.32c-1.05,8.68-10.36,13.35-17.88,9.2-4.18-2.31-6.65-7.06-6.08-11.8,1.04-8.69,10.37-13.37,17.89-9.2,4.18,2.31,6.64,7.07,6.07,11.81ZM236.74,78.7l-40.05-14.13,9.52-27,21.85,7.71c5.43,1.92,9.03,7.08,8.96,12.84l-.28,20.58Z" fill="#fff"/>
</svg>