<?xml version="1.0" encoding="UTF-8"?>
<svg id="_レイヤー_1" data-name="レイヤー_1" xmlns="http://www.w3.org/2000/svg" version="1.1" viewBox="0 0 72 75">
  <!-- Generator: Adobe Illustrator 30.3.0, SVG Export Plug-In . SVG Version: 2.1.3 Build 182)  -->
  <path d="M71.91,71.69c0,1.6-1.3,2.9-2.9,2.9H2.99c-1.6,0-2.9-1.3-2.9-2.9H.09c0-1.6,1.3-2.9,2.9-2.9h66.02c1.6,0,2.9,1.3,2.9,2.9h0Z" fill="#f1a900"/>
  <g>
    <polygon points="52.97 48.6 19.03 48.6 14.24 64.56 57.76 64.56 52.97 48.6" fill="#f1a900"/>
    <polygon points="21.14 41.57 50.86 41.57 44.97 21.94 27.03 21.94 21.14 41.57" fill="#f1a900"/>
    <path d="M42.86,14.91l-2.77-9.24c-2.25-7.02-5.92-7.02-8.17,0l-2.77,9.24h13.72Z" fill="#f1a900"/>
  </g>
</svg>