<?xml version="1.0" encoding="UTF-8"?>
<svg id="_レイヤー_1" xmlns="http://www.w3.org/2000/svg" version="1.1" viewBox="0 0 300 76">
  <!-- Generator: Adobe Illustrator 30.3.0, SVG Export Plug-In . SVG Version: 2.1.3 Build 182)  -->
  <path d="M64.03,3.22c-2.45-.98-5.24-.38-7.07,1.52l-22.67,23.67L11.62,4.74c-1.82-1.9-4.62-2.51-7.07-1.52C2.1,4.2.5,6.57.5,9.21v57.07c0,3.56,2.89,6.45,6.45,6.45s6.45-2.89,6.45-6.45V25.28l16.22,16.93c1.22,1.27,2.9,1.99,4.66,1.99s3.44-.72,4.66-1.99l16.22-16.93v41c0,3.56,2.89,6.45,6.45,6.45s6.45-2.89,6.45-6.45V9.21c0-2.64-1.6-5.01-4.05-5.99Z" fill="#d7af70"/>
  <path d="M135.98,15.66c3.56,0,6.45-2.89,6.45-6.45s-2.89-6.45-6.45-6.45h-50.49c-3.56,0-6.45,2.89-6.45,6.45v57.07c0,3.56,2.89,6.45,6.45,6.45h50.49c3.56,0,6.45-2.89,6.45-6.45s-2.89-6.45-6.45-6.45h-44.04v-15.54h27.97c3.56,0,6.45-2.89,6.45-6.45s-2.89-6.45-6.45-6.45h-27.97v-15.72h44.04Z" fill="#d7af70"/>
  <path d="M214.51,2.75c-3.56,0-6.45,2.89-6.45,6.45v41L164.51,4.74c-1.82-1.9-4.62-2.51-7.07-1.52-2.45.98-4.05,3.35-4.05,5.99v57.07c0,3.56,2.89,6.45,6.45,6.45s6.45-2.89,6.45-6.45V25.28l43.55,45.47c1.24,1.3,2.94,1.99,4.66,1.99.81,0,1.62-.15,2.4-.46,2.45-.98,4.05-3.35,4.05-5.99V9.21c0-3.56-2.89-6.45-6.45-6.45Z" fill="#d7af70"/>
  <path d="M293.05,2.75c-3.56,0-6.45,2.89-6.45,6.45v35.78c0,8.32-9.56,15.35-20.88,15.35s-20.88-7.03-20.88-15.35V9.21c0-3.56-2.89-6.45-6.45-6.45s-6.45,2.89-6.45,6.45v35.78c0,15.58,15.16,28.26,33.79,28.26s33.79-12.68,33.79-28.26V9.21c0-3.56-2.89-6.45-6.45-6.45Z" fill="#d7af70"/>
</svg>