<?xml version="1.0" encoding="UTF-8"?>
<svg id="_レイヤー_1" data-name="レイヤー_1" xmlns="http://www.w3.org/2000/svg" version="1.1" viewBox="0 0 200 200">
  <!-- Generator: Adobe Illustrator 30.3.0, SVG Export Plug-In . SVG Version: 2.1.3 Build 182)  -->
  <rect x="0" width="200" height="200" rx="21.97" ry="21.97" fill="#1c2948"/>
  <g>
    <path d="M94.03,137.61h-1.14c-.06-.58-.14-1.15-.23-1.72l1.1-.3c.4-.11.64-.52.53-.92l-1.47-5.47c-.11-.4-.52-.64-.92-.53l-1.12.3c-.21-.54-.43-1.07-.67-1.59l1.01-.58c.36-.21.48-.67.28-1.03l-2.83-4.91c-.21-.36-.67-.48-1.03-.28l-1.03.59c-.34-.46-.69-.92-1.05-1.36l.84-.84c.29-.29.29-.77,0-1.06l-4.01-4.01c-.29-.29-.77-.29-1.07,0l-.85.85c-.44-.36-.9-.71-1.36-1.04l.6-1.04c.21-.36.08-.82-.28-1.03l-4.91-2.83c-.36-.21-.82-.08-1.03.28l-.6,1.03c-.52-.23-1.05-.45-1.59-.66l.31-1.15c.11-.4-.13-.81-.53-.92l-5.47-1.47c-.4-.11-.81.13-.92.53l-.31,1.14c-.56-.09-1.13-.16-1.71-.22v-1.18c0-.41-.34-.75-.75-.75h-5.67c-.41,0-.75.34-.75.75v1.18c-.57.06-1.14.14-1.71.22l-.3-1.14c-.11-.4-.52-.64-.92-.53l-5.47,1.47c-.4.11-.64.52-.53.92l.31,1.15c-.54.21-1.06.43-1.59.66l-.6-1.03c-.21-.36-.67-.48-1.03-.28l-4.91,2.83c-.36.21-.48.67-.28,1.03l.6,1.04c-.46.34-.92.68-1.36,1.04l-.85-.85c-.29-.29-.77-.29-1.06,0l-4.01,4.01c-.29.29-.29.77,0,1.06l.84.84c-.36.44-.71.9-1.05,1.36l-1.03-.59c-.36-.21-.82-.08-1.03.28l-2.83,4.91c-.21.36-.08.82.28,1.03l1.01.58c-.23.52-.46,1.05-.67,1.59l-1.12-.3c-.4-.11-.81.13-.92.53l-1.47,5.47c-.11.4.13.81.53.92l1.1.3c-.09.57-.17,1.14-.23,1.72h-1.14c-.41,0-.75.34-.75.75v5.67c0,.41.34.75.75.75h1.13c.06.58.14,1.15.22,1.72l-1.09.29c-.4.11-.64.52-.53.92l1.47,5.47c.11.4.52.64.92.53l1.09-.29c.21.54.43,1.07.66,1.6l-.98.57c-.36.21-.48.67-.28,1.03l2.83,4.91c.21.36.67.48,1.03.28l.98-.57c.34.47.69.93,1.05,1.37l-.8.8c-.29.29-.29.77,0,1.07l4.01,4.01c.29.29.77.29,1.06,0l.8-.8c.45.36.91.72,1.37,1.06l-.56.98c-.21.36-.08.82.28,1.03l4.91,2.83c.36.21.82.08,1.03-.28l.55-.96c.53.24,1.06.46,1.61.67l-.29,1.07c-.11.4.13.82.53.92l5.47,1.47c.4.11.82-.13.92-.53l.28-1.05c.57.09,1.15.17,1.73.23v1.09c0,.41.34.75.75.75h5.67c.41,0,.75-.34.75-.75v-1.09c.58-.06,1.16-.14,1.73-.23l.28,1.05c.11.4.52.64.92.53l5.47-1.47c.4-.11.64-.52.53-.92l-.29-1.07c.54-.21,1.08-.43,1.61-.67l.55.96c.21.36.67.48,1.03.28l4.91-2.83c.36-.21.48-.67.28-1.03l-.56-.97c.47-.34.93-.69,1.37-1.06l.8.8c.29.29.77.29,1.07,0l4.01-4.01c.29-.29.29-.77,0-1.07l-.8-.8c.36-.45.71-.91,1.05-1.37l.98.57c.36.21.82.08,1.03-.28l2.83-4.91c.21-.36.08-.82-.28-1.03l-.98-.57c.23-.53.46-1.06.66-1.6l1.09.29c.4.11.81-.13.92-.53l1.47-5.47c.11-.4-.13-.82-.53-.92l-1.09-.29c.09-.57.16-1.14.22-1.72h1.13c.41,0,.75-.34.75-.75v-5.67c0-.41-.34-.75-.75-.75ZM59.01,160.28c-10.49,0-19.04-8.55-19.04-19.04s8.55-19.04,19.04-19.04,19.04,8.55,19.04,19.04-8.55,19.04-19.04,19.04Z" fill="#d7af70"/>
    <path d="M176,137.61h-1.14c-.06-.58-.14-1.15-.23-1.72l1.1-.3c.4-.11.64-.52.53-.92l-1.47-5.47c-.11-.4-.52-.64-.92-.53l-1.12.3c-.21-.54-.43-1.07-.67-1.59l1.01-.58c.36-.21.48-.67.28-1.03l-2.83-4.91c-.21-.36-.67-.48-1.03-.28l-1.03.59c-.34-.46-.69-.92-1.05-1.36l.84-.84c.29-.29.29-.77,0-1.06l-4.01-4.01c-.29-.29-.77-.29-1.07,0l-.85.85c-.44-.36-.9-.71-1.36-1.04l.6-1.04c.21-.36.08-.82-.28-1.03l-4.91-2.83c-.36-.21-.82-.08-1.03.28l-.6,1.03c-.52-.23-1.05-.45-1.59-.66l.31-1.15c.11-.4-.13-.81-.53-.92l-5.47-1.47c-.4-.11-.81.13-.92.53l-.31,1.14c-.56-.09-1.13-.16-1.71-.22v-1.18c0-.41-.34-.75-.75-.75h-5.67c-.41,0-.75.34-.75.75v1.18c-.57.06-1.14.14-1.71.22l-.31-1.14c-.11-.4-.52-.64-.92-.53l-5.47,1.47c-.4.11-.64.52-.53.92l.31,1.15c-.54.21-1.06.43-1.59.66l-.6-1.03c-.21-.36-.67-.48-1.03-.28l-4.91,2.83c-.36.21-.48.67-.28,1.03l.6,1.04c-.46.34-.92.68-1.36,1.04l-.85-.85c-.29-.29-.77-.29-1.06,0l-4.01,4.01c-.29.29-.29.77,0,1.06l.84.84c-.36.44-.71.9-1.05,1.36l-1.03-.59c-.36-.21-.82-.08-1.03.28l-2.83,4.91c-.21.36-.08.82.28,1.03l1.01.58c-.23.52-.46,1.05-.67,1.59l-1.12-.3c-.4-.11-.82.13-.92.53l-1.47,5.47c-.11.4.13.81.53.92l1.1.3c-.09.57-.17,1.14-.23,1.72h-1.14c-.41,0-.75.34-.75.75v5.67c0,.41.34.75.75.75h1.13c.06.58.14,1.15.22,1.72l-1.09.29c-.4.11-.64.52-.53.92l1.47,5.47c.11.4.52.64.92.53l1.09-.29c.21.54.43,1.07.66,1.6l-.98.57c-.36.21-.48.67-.28,1.03l2.83,4.91c.21.36.67.48,1.03.28l.98-.57c.34.47.69.93,1.05,1.37l-.8.8c-.29.29-.29.77,0,1.07l4.01,4.01c.29.29.77.29,1.06,0l.8-.8c.45.36.91.72,1.37,1.06l-.56.98c-.21.36-.08.82.28,1.03l4.91,2.83c.36.21.82.08,1.03-.28l.55-.96c.53.24,1.06.46,1.61.67l-.29,1.07c-.11.4.13.82.53.92l5.47,1.47c.4.11.81-.13.92-.53l.28-1.05c.57.09,1.15.17,1.73.23v1.09c0,.41.34.75.75.75h5.67c.41,0,.75-.34.75-.75v-1.09c.58-.06,1.16-.14,1.73-.23l.28,1.05c.11.4.52.64.92.53l5.47-1.47c.4-.11.64-.52.53-.92l-.29-1.07c.54-.21,1.08-.43,1.61-.67l.55.96c.21.36.67.48,1.03.28l4.91-2.83c.36-.21.48-.67.28-1.03l-.56-.97c.47-.34.93-.69,1.37-1.06l.8.8c.29.29.77.29,1.07,0l4.01-4.01c.29-.29.29-.77,0-1.07l-.8-.8c.36-.45.71-.91,1.05-1.37l.98.57c.36.21.82.08,1.03-.28l2.83-4.91c.21-.36.08-.82-.28-1.03l-.98-.57c.23-.53.46-1.06.66-1.6l1.09.29c.4.11.81-.13.92-.53l1.47-5.47c.11-.4-.13-.82-.53-.92l-1.09-.29c.09-.57.16-1.14.22-1.72h1.13c.41,0,.75-.34.75-.75v-5.67c0-.41-.34-.75-.75-.75ZM140.99,160.28c-10.49,0-19.04-8.55-19.04-19.04s8.55-19.04,19.04-19.04,19.04,8.55,19.04,19.04-8.55,19.04-19.04,19.04Z" fill="#d7af70"/>
    <path d="M112.07,103.07c-1.24,0-2.47-.39-3.5-1.15l-37.17-27.48c-2.4-1.77-3.14-5.12-1.52-7.81,1.08-1.79,3.12-2.78,5.21-2.8,8.9-.08,12.07-5.43,12.07-10.01,0-4.84-4.21-9.75-12.26-9.75h-29.53c-.71,0-1.29.58-1.29,1.29v50.27c0,3.07-2.25,5.81-5.3,6.11-3.51.33-6.46-2.41-6.46-5.85v-50.85c0-7.03,5.7-12.72,12.72-12.72h29.85c15.6,0,24.02,11.08,24.02,21.51,0,8.73-4.5,14.91-10.73,18.41l18,13.31v-40.5c0-7.03,5.7-12.72,12.72-12.72h19.69c15.59,0,34.18,6.53,34.18,37.66,0,12.79-3.03,22.14-9.27,28.58-2.24,2.31-5.92,2.77-8.35.67-2.62-2.27-2.72-6.23-.31-8.63,4.1-4.07,6.18-11.01,6.18-20.62,0-18.16-6.71-25.9-22.42-25.9h-19.36c-.71,0-1.29.58-1.29,1.29v51.54c0,2.21-1.09,4.36-3.02,5.43-.9.5-1.88.74-2.86.74Z" fill="#d7af70"/>
  </g>
</svg>