<?xml version="1.0" encoding="UTF-8"?>
<svg id="_レイヤー_1" xmlns="http://www.w3.org/2000/svg" version="1.1" viewBox="0 0 300 76">
  <!-- Generator: Adobe Illustrator 30.3.0, SVG Export Plug-In . SVG Version: 2.1.3 Build 182)  -->
  <path d="M144.3,34.29h-1.18c-.06-.6-.14-1.19-.24-1.78l1.14-.31c.41-.11.66-.54.55-.95l-1.52-5.67c-.11-.41-.54-.66-.96-.55l-1.16.31c-.22-.56-.45-1.11-.69-1.65l1.05-.61c.37-.21.5-.69.29-1.07l-2.93-5.08c-.21-.37-.69-.5-1.07-.29l-1.07.62c-.35-.48-.71-.95-1.09-1.41l.87-.87c.3-.3.3-.8,0-1.1l-4.15-4.15c-.3-.3-.8-.3-1.1,0l-.88.88c-.46-.37-.93-.73-1.41-1.08l.62-1.08c.21-.37.09-.85-.29-1.07l-5.08-2.93c-.37-.21-.85-.09-1.07.29l-.62,1.07c-.54-.24-1.09-.47-1.64-.68l.32-1.19c.11-.41-.14-.84-.55-.96l-5.67-1.52c-.41-.11-.84.14-.95.55l-.32,1.18c-.58-.09-1.17-.17-1.77-.23v-1.22c0-.43-.35-.78-.78-.78h-5.87c-.43,0-.78.35-.78.78v1.22c-.59.06-1.18.14-1.77.23l-.32-1.18c-.11-.41-.54-.66-.96-.55l-5.67,1.52c-.41.11-.66.54-.55.96l.32,1.19c-.55.21-1.1.44-1.64.68l-.62-1.07c-.21-.37-.69-.5-1.07-.29l-5.08,2.93c-.37.21-.5.69-.29,1.07l.62,1.08c-.48.35-.95.71-1.41,1.08l-.88-.88c-.3-.3-.8-.3-1.1,0l-4.15,4.15c-.3.3-.3.8,0,1.1l.87.87c-.37.46-.73.93-1.09,1.41l-1.07-.62c-.37-.21-.85-.09-1.07.29l-2.93,5.08c-.21.37-.09.85.29,1.07l1.05.61c-.24.54-.47,1.09-.69,1.65l-1.16-.31c-.41-.11-.84.14-.96.55l-1.52,5.67c-.11.41.14.84.55.95l1.14.31c-.09.59-.17,1.18-.24,1.78h-1.18c-.43,0-.78.35-.78.78v5.87c0,.43.35.78.78.78h1.17c.06.6.14,1.19.23,1.78l-1.13.3c-.41.11-.66.54-.55.96l1.52,5.67c.11.41.54.66.96.55l1.13-.3c.22.56.45,1.11.69,1.66l-1.01.59c-.37.21-.5.69-.29,1.07l2.93,5.08c.21.37.69.5,1.07.29l1.02-.59c.35.48.72.96,1.09,1.42l-.83.83c-.3.3-.3.8,0,1.1l4.15,4.15c.3.3.8.3,1.1,0l.83-.83c.46.38.94.74,1.42,1.1l-.58,1.01c-.21.37-.09.85.29,1.07l5.08,2.93c.37.21.85.09,1.07-.29l.57-.99c.55.25,1.1.48,1.66.69l-.3,1.1c-.11.41.14.84.55.96l5.67,1.52c.41.11.84-.14.96-.55l.29-1.09c.59.09,1.19.17,1.79.24v1.13c0,.43.35.78.78.78h5.87c.43,0,.78-.35.78-.78v-1.13c.6-.06,1.2-.14,1.79-.24l.29,1.09c.11.41.54.66.95.55l5.67-1.52c.41-.11.66-.54.55-.96l-.3-1.1c.56-.22,1.12-.45,1.66-.69l.57.99c.21.37.69.5,1.07.29l5.08-2.93c.37-.21.5-.69.29-1.07l-.58-1.01c.48-.35.96-.72,1.42-1.1l.83.83c.3.3.8.3,1.1,0l4.15-4.15c.3-.3.3-.8,0-1.1l-.83-.83c.38-.46.74-.94,1.09-1.42l1.02.59c.37.21.85.09,1.07-.29l2.93-5.08c.21-.37.09-.85-.29-1.07l-1.01-.59c.24-.55.47-1.1.69-1.66l1.13.3c.41.11.84-.14.96-.55l1.52-5.67c.11-.41-.14-.84-.55-.96l-1.13-.3c.09-.59.17-1.18.23-1.78h1.17c.43,0,.78-.35.78-.78v-5.87c0-.43-.35-.78-.78-.78ZM108.04,57.77c-10.86,0-19.72-8.86-19.72-19.72s8.86-19.72,19.72-19.72,19.72,8.86,19.72,19.72-8.86,19.72-19.72,19.72Z" fill="#d7af70" fill-rule="evenodd"/>
  <path d="M299.22,34.29h-1.18c-.06-.6-.14-1.19-.24-1.78l1.14-.31c.41-.11.66-.54.55-.95l-1.52-5.67c-.11-.41-.54-.66-.96-.55l-1.16.31c-.22-.56-.45-1.11-.69-1.65l1.05-.61c.37-.21.5-.69.29-1.07l-2.93-5.08c-.21-.37-.69-.5-1.07-.29l-1.07.62c-.35-.48-.71-.95-1.09-1.41l.87-.87c.3-.3.3-.8,0-1.1l-4.15-4.15c-.3-.3-.8-.3-1.1,0l-.88.88c-.46-.37-.93-.73-1.41-1.08l.62-1.08c.21-.37.09-.85-.29-1.07l-5.08-2.93c-.37-.21-.85-.09-1.07.29l-.62,1.07c-.54-.24-1.09-.47-1.64-.68l.32-1.19c.11-.41-.14-.84-.55-.96l-5.67-1.52c-.41-.11-.84.14-.95.55l-.32,1.18c-.58-.09-1.17-.17-1.77-.23v-1.22c0-.43-.35-.78-.78-.78h-5.87c-.43,0-.78.35-.78.78v1.22c-.59.06-1.18.14-1.77.23l-.32-1.18c-.11-.41-.54-.66-.96-.55l-5.67,1.52c-.41.11-.66.54-.55.96l.32,1.19c-.55.21-1.1.44-1.64.68l-.62-1.07c-.21-.37-.69-.5-1.07-.29l-5.08,2.93c-.37.21-.5.69-.29,1.07l.62,1.08c-.48.35-.95.71-1.41,1.08l-.88-.88c-.3-.3-.8-.3-1.1,0l-4.15,4.15c-.3.3-.3.8,0,1.1l.87.87c-.37.46-.73.93-1.09,1.41l-1.07-.62c-.37-.21-.85-.09-1.07.29l-2.93,5.08c-.21.37-.09.85.29,1.07l1.05.61c-.24.54-.47,1.09-.69,1.65l-1.16-.31c-.41-.11-.84.14-.96.55l-1.52,5.67c-.11.41.14.84.55.95l1.14.31c-.09.59-.17,1.18-.24,1.78h-1.18c-.43,0-.78.35-.78.78v5.87c0,.43.35.78.78.78h1.17c.06.6.14,1.19.23,1.78l-1.13.3c-.41.11-.66.54-.55.96l1.52,5.67c.11.41.54.66.96.55l1.13-.3c.22.56.45,1.11.69,1.66l-1.01.59c-.37.21-.5.69-.29,1.07l2.93,5.08c.21.37.69.5,1.07.29l1.02-.59c.35.48.72.96,1.09,1.42l-.83.83c-.3.3-.3.8,0,1.1l4.15,4.15c.3.3.8.3,1.1,0l.83-.83c.46.38.94.74,1.42,1.1l-.58,1.01c-.21.37-.09.85.29,1.07l5.08,2.93c.37.21.85.09,1.07-.29l.57-.99c.55.25,1.1.48,1.66.69l-.3,1.1c-.11.41.14.84.55.96l5.67,1.52c.41.11.84-.14.96-.55l.29-1.09c.59.09,1.19.17,1.79.24v1.13c0,.43.35.78.78.78h5.87c.43,0,.78-.35.78-.78v-1.13c.6-.06,1.2-.14,1.79-.24l.29,1.09c.11.41.54.66.95.55l5.67-1.52c.41-.11.66-.54.55-.96l-.3-1.1c.56-.22,1.12-.45,1.66-.69l.57.99c.21.37.69.5,1.07.29l5.08-2.93c.37-.21.5-.69.29-1.07l-.58-1.01c.48-.35.96-.72,1.42-1.1l.83.83c.3.3.8.3,1.1,0l4.15-4.15c.3-.3.3-.8,0-1.1l-.83-.83c.38-.46.74-.94,1.09-1.42l1.02.59c.37.21.85.09,1.07-.29l2.93-5.08c.21-.37.09-.85-.29-1.07l-1.01-.59c.24-.55.47-1.1.69-1.66l1.13.3c.41.11.84-.14.96-.55l1.52-5.67c.11-.41-.14-.84-.55-.96l-1.13-.3c.09-.59.17-1.18.23-1.78h1.17c.43,0,.78-.35.78-.78v-5.87c0-.43-.35-.78-.78-.78ZM262.96,57.77c-10.86,0-19.72-8.86-19.72-19.72s8.86-19.72,19.72-19.72,19.72,8.86,19.72,19.72-8.86,19.72-19.72,19.72Z" fill="#d7af70" fill-rule="evenodd"/>
  <path d="M184.65,72.61h-8.35c-3.34,0-6.32-2.44-6.64-5.77-.36-3.81,2.63-7.02,6.36-7.02h8.63c15.07,0,20.67-5.91,20.67-21.82s-5.6-21.82-20.67-21.82h-17.67c-.73,0-1.32.59-1.32,1.32v48.44c0,3.34-2.44,6.32-5.77,6.64-3.81.36-7.02-2.63-7.02-6.36V16.33c0-7.15,5.79-12.94,12.94-12.94h18.83c22.2,0,33.46,11.64,33.46,34.61s-11.26,34.61-33.46,34.61Z" fill="#d7af70"/>
  <path d="M59.4,72.61c-2.04,0-4.05-.98-5.29-2.79l-17.77-26.09c-1.03-1.51-1.5-3.38-1.1-5.16.68-3.02,3.32-5.03,6.25-5.03,8.08,0,10.95-4.55,10.95-8.8s-3.76-8.55-10.95-8.55H14.12c-.73,0-1.33.59-1.33,1.33v48.46c0,3.34-2.44,6.32-5.77,6.64-3.81.36-7.02-2.63-7.02-6.36V16.33C0,9.19,5.79,3.39,12.94,3.39h28.55c11.67,0,23.74,7.98,23.74,21.34,0,7.92-4.44,15.91-13.04,19.56l12.34,18.11c1.92,2.82,1.5,6.74-1.18,8.84-1.18.93-2.58,1.37-3.95,1.37Z" fill="#d7af70"/>
</svg>