<?xml version="1.0" encoding="UTF-8"?>
<svg id="_レイヤー_1" data-name="レイヤー_1" xmlns="http://www.w3.org/2000/svg" version="1.1" viewBox="0 0 300 283">
  <!-- Generator: Adobe Illustrator 30.3.0, SVG Export Plug-In . SVG Version: 2.1.3 Build 182)  -->
  <path d="M138.41,205.48h-2.21c-.12-1.12-.27-2.23-.44-3.33l2.14-.57c.78-.21,1.24-1.01,1.03-1.79l-2.85-10.62c-.21-.78-1.01-1.24-1.79-1.03l-2.18.58c-.4-1.04-.84-2.07-1.29-3.09l1.96-1.13c.7-.4.94-1.3.53-2l-5.5-9.52c-.4-.7-1.3-.94-2-.53l-2,1.15c-.66-.9-1.33-1.78-2.03-2.64l1.64-1.64c.57-.57.57-1.5,0-2.07l-7.77-7.78c-.57-.57-1.5-.57-2.07,0l-1.65,1.65c-.86-.7-1.74-1.37-2.64-2.03l1.16-2.02c.4-.7.16-1.59-.54-2l-9.52-5.5c-.7-.4-1.59-.16-2,.53l-1.16,2c-1.01-.45-2.04-.88-3.08-1.28l.6-2.23c.21-.78-.26-1.58-1.03-1.79l-10.62-2.85c-.78-.21-1.58.26-1.79,1.03l-.59,2.21c-1.1-.17-2.2-.32-3.31-.43v-2.29c0-.8-.66-1.46-1.46-1.46h-11c-.8,0-1.46.66-1.46,1.46v2.29c-1.11.12-2.22.26-3.31.43l-.59-2.21c-.21-.78-1.01-1.24-1.79-1.03l-10.62,2.85c-.78.21-1.24,1.01-1.03,1.79l.6,2.23c-1.04.4-2.06.83-3.08,1.28l-1.16-2c-.4-.7-1.3-.94-2-.54l-9.52,5.5c-.7.4-.94,1.3-.54,2l1.16,2.02c-.9.65-1.78,1.33-2.64,2.03l-1.65-1.65c-.57-.57-1.5-.57-2.07,0l-7.78,7.78c-.57.57-.57,1.5,0,2.07l1.64,1.64c-.7.86-1.38,1.74-2.03,2.64l-2-1.15c-.7-.4-1.6-.16-2,.53l-5.5,9.52c-.4.7-.16,1.59.54,2l1.96,1.13c-.46,1.02-.89,2.04-1.29,3.09l-2.18-.58c-.78-.21-1.58.26-1.79,1.03l-2.85,10.62c-.21.78.26,1.58,1.03,1.79l2.14.57c-.17,1.1-.32,2.21-.44,3.33h-2.21c-.8,0-1.46.66-1.46,1.46v11c0,.8.66,1.46,1.46,1.46h2.19c.12,1.12.26,2.23.43,3.34l-2.11.57c-.78.21-1.24,1.01-1.03,1.79l2.85,10.62c.21.78,1.01,1.24,1.79,1.03l2.12-.57c.4,1.05.83,2.08,1.29,3.11l-1.9,1.1c-.7.4-.94,1.3-.54,2l5.5,9.52c.4.7,1.3.94,2,.53l1.91-1.1c.66.91,1.34,1.8,2.05,2.67l-1.56,1.56c-.57.57-.57,1.5,0,2.07l7.78,7.78c.57.57,1.5.57,2.07,0l1.55-1.55c.87.71,1.76,1.39,2.67,2.05l-1.09,1.89c-.4.7-.16,1.59.54,2l9.52,5.5c.7.4,1.59.16,2-.53l1.08-1.86c1.03.46,2.06.89,3.12,1.3l-.55,2.07c-.21.78.26,1.58,1.03,1.79l10.62,2.85c.78.21,1.58-.26,1.79-1.03l.55-2.04c1.11.18,2.23.32,3.36.44v2.11c0,.8.66,1.46,1.46,1.46h11c.8,0,1.46-.66,1.46-1.46v-2.11c1.13-.12,2.25-.27,3.36-.44l.55,2.04c.21.78,1.01,1.24,1.79,1.03l10.62-2.85c.78-.21,1.24-1.01,1.03-1.79l-.55-2.07c1.05-.41,2.09-.84,3.12-1.3l1.08,1.86c.4.7,1.3.94,2,.53l9.52-5.5c.7-.4.94-1.3.54-2l-1.09-1.89c.91-.66,1.8-1.35,2.67-2.05l1.55,1.55c.57.57,1.5.57,2.07,0l7.77-7.78c.57-.57.57-1.5,0-2.07l-1.56-1.56c.7-.87,1.38-1.76,2.05-2.67l1.91,1.1c.7.4,1.59.16,2-.53l5.5-9.52c.4-.7.16-1.59-.53-2l-1.9-1.1c.46-1.02.89-2.06,1.29-3.11l2.12.57c.78.21,1.58-.26,1.79-1.03l2.85-10.62c.21-.78-.26-1.58-1.03-1.79l-2.11-.57c.17-1.1.32-2.22.43-3.34h2.19c.8,0,1.46-.66,1.46-1.46v-11c0-.8-.66-1.46-1.46-1.46ZM70.47,249.47c-20.35,0-36.94-16.6-36.94-36.95s16.6-36.94,36.94-36.94,36.94,16.6,36.94,36.94-16.6,36.95-36.94,36.95Z" fill="#1c2948"/>
  <path d="M297.47,205.48h-2.21c-.12-1.12-.27-2.23-.44-3.33l2.14-.57c.78-.21,1.24-1.01,1.03-1.79l-2.85-10.62c-.21-.78-1.01-1.24-1.79-1.03l-2.18.58c-.4-1.04-.84-2.07-1.29-3.09l1.96-1.13c.7-.4.94-1.3.53-2l-5.5-9.52c-.4-.7-1.3-.94-2-.53l-2,1.15c-.66-.9-1.33-1.78-2.03-2.64l1.64-1.64c.57-.57.57-1.5,0-2.07l-7.77-7.78c-.57-.57-1.5-.57-2.07,0l-1.65,1.65c-.86-.7-1.74-1.37-2.64-2.03l1.16-2.02c.4-.7.16-1.59-.54-2l-9.52-5.5c-.7-.4-1.59-.16-2,.53l-1.16,2c-1.01-.45-2.04-.88-3.08-1.28l.6-2.23c.21-.78-.26-1.58-1.03-1.79l-10.62-2.85c-.78-.21-1.58.26-1.79,1.03l-.59,2.21c-1.1-.17-2.2-.32-3.31-.43v-2.29c0-.8-.66-1.46-1.46-1.46h-11c-.8,0-1.46.66-1.46,1.46v2.29c-1.11.12-2.22.26-3.31.43l-.59-2.21c-.21-.78-1.01-1.24-1.79-1.03l-10.62,2.85c-.78.21-1.24,1.01-1.03,1.79l.6,2.23c-1.04.4-2.06.83-3.08,1.28l-1.16-2c-.4-.7-1.3-.94-2-.54l-9.52,5.5c-.7.4-.94,1.3-.54,2l1.16,2.02c-.9.65-1.78,1.33-2.64,2.03l-1.65-1.65c-.57-.57-1.5-.57-2.07,0l-7.78,7.78c-.57.57-.57,1.5,0,2.07l1.64,1.64c-.7.86-1.38,1.74-2.03,2.64l-2-1.15c-.7-.4-1.6-.16-2,.53l-5.5,9.52c-.4.7-.16,1.59.54,2l1.96,1.13c-.46,1.02-.89,2.04-1.29,3.09l-2.18-.58c-.78-.21-1.58.26-1.79,1.03l-2.85,10.62c-.21.78.26,1.58,1.03,1.79l2.14.57c-.17,1.1-.32,2.21-.44,3.33h-2.21c-.8,0-1.46.66-1.46,1.46v11c0,.8.66,1.46,1.46,1.46h2.19c.12,1.12.26,2.23.43,3.34l-2.11.57c-.78.21-1.24,1.01-1.03,1.79l2.85,10.62c.21.78,1.01,1.24,1.79,1.03l2.12-.57c.4,1.05.83,2.08,1.29,3.11l-1.9,1.1c-.7.4-.94,1.3-.54,2l5.5,9.52c.4.7,1.3.94,2,.53l1.91-1.1c.66.91,1.34,1.8,2.04,2.67l-1.56,1.56c-.57.57-.57,1.5,0,2.07l7.78,7.78c.57.57,1.5.57,2.07,0l1.55-1.55c.87.71,1.76,1.39,2.67,2.05l-1.09,1.89c-.4.7-.16,1.59.54,2l9.52,5.5c.7.4,1.59.16,2-.53l1.08-1.86c1.03.46,2.06.89,3.12,1.3l-.55,2.07c-.21.78.26,1.58,1.03,1.79l10.62,2.85c.78.21,1.58-.26,1.79-1.03l.55-2.04c1.11.18,2.23.32,3.36.44v2.11c0,.8.66,1.46,1.46,1.46h11c.8,0,1.46-.66,1.46-1.46v-2.11c1.13-.12,2.25-.27,3.36-.44l.55,2.04c.21.78,1.01,1.24,1.79,1.03l10.62-2.85c.78-.21,1.24-1.01,1.03-1.79l-.55-2.07c1.05-.41,2.09-.84,3.12-1.3l1.08,1.86c.4.7,1.3.94,2,.53l9.52-5.5c.7-.4.94-1.3.54-2l-1.09-1.89c.91-.66,1.8-1.35,2.67-2.05l1.55,1.55c.57.57,1.5.57,2.07,0l7.77-7.78c.57-.57.57-1.5,0-2.07l-1.56-1.56c.7-.87,1.38-1.76,2.05-2.67l1.91,1.1c.7.4,1.59.16,2-.53l5.5-9.52c.4-.7.16-1.59-.53-2l-1.9-1.1c.46-1.02.89-2.06,1.29-3.11l2.12.57c.78.21,1.58-.26,1.79-1.03l2.85-10.62c.21-.78-.26-1.58-1.03-1.79l-2.11-.57c.17-1.1.32-2.22.43-3.34h2.19c.8,0,1.46-.66,1.46-1.46v-11c0-.8-.66-1.46-1.46-1.46ZM229.53,249.47c-20.35,0-36.94-16.6-36.94-36.95s16.6-36.94,36.94-36.94,36.94,16.6,36.94,36.94-16.6,36.95-36.94,36.95Z" fill="#1c2948"/>
  <path d="M173.41,138.47c-2.4,0-4.78-.75-6.78-2.24l-72.13-53.33c-4.66-3.44-6.1-9.94-2.94-15.15,2.1-3.47,6.05-5.4,10.11-5.44,17.27-.15,23.41-10.53,23.41-19.43,0-9.4-8.17-18.91-23.79-18.91h-57.3c-1.38,0-2.5,1.12-2.5,2.5v97.55c0,5.96-4.36,11.28-10.29,11.85-6.81.65-12.53-4.69-12.53-11.36V25.85C18.66,12.21,29.71,1.16,43.35,1.16h57.93c30.27,0,46.61,21.5,46.61,41.73,0,16.93-8.74,28.94-20.82,35.72l34.93,25.82V25.85c0-13.63,11.05-24.69,24.69-24.69h38.21c30.26,0,66.33,12.68,66.33,73.09,0,24.81-5.89,42.97-18,55.46-4.35,4.49-11.48,5.38-16.21,1.29-5.09-4.4-5.28-12.09-.6-16.74,7.95-7.9,11.98-21.36,11.98-40.01,0-35.23-13.01-50.27-43.51-50.27h-37.58c-1.38,0-2.5,1.12-2.5,2.5v100c0,4.28-2.11,8.45-5.85,10.53-1.74.97-3.65,1.45-5.56,1.45Z" fill="#1c2948"/>
</svg>