<?xml version="1.0" encoding="UTF-8"?>
<svg id="_レイヤー_1" data-name="レイヤー_1" xmlns="http://www.w3.org/2000/svg" version="1.1" viewBox="0 0 250 84">
  <!-- Generator: Adobe Illustrator 30.3.0, SVG Export Plug-In . SVG Version: 2.1.3 Build 182)  -->
  <path id="path68873" d="M0,83.84h250V.16H0v83.68Z" fill="#00655a"/>
  <path id="path68885" d="M45.43,53.8h-.12l-11.39-31.29h-13.77v.12c3.41,1.32,5.41,4,5.41,8.41v30.48h3.98V27.37h.13l12.42,34.15h4.56l12.28-34.51h.12v34.51h7.55V22.51h-10.02l-11.13,31.29ZM83.41,30.1c0-3.93,3.47-5.48,6.59-5.56,4.47-.1,9.09,1.8,12.1,3.38v-4.73c-1.36-.3-6.34-1.53-11.26-1.53-8.79,0-14.28,3.66-14.5,10.12-.44,13.07,20.92,12.21,20.92,20.97,0,4.22-3.11,6.57-8.03,6.57-4.51,0-9.1-2.04-12.3-4.22v5.31c1.36.71,6.3,1.95,11.27,1.95,8.87,0,16.35-2.84,16.17-11.56-.24-12.63-20.96-11.7-20.96-20.71M141.4,52.57c.83-1.76,2.46-5.02,4.19-9.59h-4.04s-1.49,3.61-2.9,6.83c-3.64-3.7-7.1-7.29-9.52-9.82,3.83-2.24,9.61-4.76,9.61-10.55,0-3.58-3.17-7.74-10.21-7.57-5.28.15-9.02,3.83-9.3,8.13-.23,3.42,1.39,5.72,3.4,7.81.36.38,1.01,1.05,1.84,1.91-5.84,3.36-9.31,7.25-9.47,12.15-.2,5.78,4.45,10.54,12.49,10.54,5.44,0,9.51-2.48,12.29-6.79,3.27,3.39,5.67,5.9,5.67,5.9h4.96c-2.46-2.37-5.68-5.59-9-8.95M122.73,29.8c.14-3.14,2.39-5.58,6.08-5.62,3.55-.05,6.29,2.25,6.29,5.62,0,4.01-2.87,5.92-7.69,8.38-.27-.28-.5-.54-.7-.76-2.62-2.82-4.11-4.61-3.97-7.63M136.92,53.53c-2.12,4.05-4.18,6.56-9.16,6.56-5.61,0-9.15-3.64-8.95-8.77.18-4.68,3.94-7.46,7.52-9.64,3,3.11,7.16,7.46,10.87,11.29-.09.21-.19.4-.28.56M209.91,22.52h-16.74v.12c3.37,1.32,5.37,4,5.37,8.42v30.48h11.37c12.22,0,21.21-3.11,21.21-19.51s-9.03-19.51-21.21-19.51M210.55,58.55h-5.19V25.47h5.19c10.25,0,13.11,6.2,13.11,16.55s-2.86,16.53-13.11,16.53M162.95,22.52v.12c2.9,1.11,5.43,3.77,4.47,6.36-.88,2.37-13.24,32.54-13.24,32.54h4.08l4.72-11.85h16.75l4.98,11.85h7.46l-16.85-39.01h-12.38ZM164.22,46.56l6.87-17.35,7.34,17.35h-14.21Z" fill="#fff"/>
</svg>