<?xml version="1.0" encoding="UTF-8"?>
<svg id="_レイヤー_1" data-name="レイヤー_1" xmlns="http://www.w3.org/2000/svg" version="1.1" viewBox="0 0 395 61">
  <!-- Generator: Adobe Illustrator 30.3.0, SVG Export Plug-In . SVG Version: 2.1.3 Build 182)  -->
  <g>
    <polygon points="249.28 60.64 .28 60.64 6.22 45.41 255.22 45.41 249.28 60.64" fill="#ff5638"/>
    <polygon points="388.78 60.64 256.96 60.64 262.9 45.41 394.72 45.41 388.78 60.64" fill="#1e2753"/>
  </g>
  <g>
    <g>
      <path d="M26.14.36c1.79,0,3.43.26,4.92.79,1.49.53,2.76,1.27,3.83,2.22,1.07.95,1.89,2.11,2.48,3.47.59,1.36.88,2.86.88,4.5s-.3,3.12-.91,4.46c-.61,1.34-1.46,2.5-2.57,3.46-1.11.96-2.42,1.7-3.95,2.22-1.53.52-3.21.78-5.05.78h-6.9v9.87h-7.32V.36h14.58ZM18.87,16.88h5.31c2.12,0,3.75-.47,4.9-1.41,1.15-.94,1.73-2.3,1.73-4.1s-.57-3.2-1.72-4.14c-1.15-.94-2.78-1.41-4.89-1.41h-5.33v11.05Z"/>
      <path d="M53.79,32.14h-7.32V.36h14.68c1.92,0,3.65.24,5.18.7,1.53.47,2.83,1.15,3.9,2.03,1.07.88,1.89,1.95,2.46,3.2.57,1.26.86,2.68.86,4.26,0,1.01-.14,1.99-.42,2.92-.28.93-.69,1.79-1.24,2.58-.54.79-1.21,1.48-2,2.08-.79.6-1.69,1.09-2.69,1.45l7.36,12.55h-8.28l-6.52-11.52h-5.98v11.52ZM53.79,15.51h6.42c1.86,0,3.29-.43,4.31-1.28,1.02-.85,1.53-2.05,1.53-3.59,0-.75-.14-1.43-.41-2.04-.27-.61-.67-1.13-1.18-1.55-.51-.43-1.13-.75-1.86-.98-.74-.23-1.55-.34-2.46-.34h-6.35v9.78Z"/>
      <path d="M110.17,32.14h-24.09V.36h24.09v5.68h-16.78v7.42h15.41v5.26h-15.41v7.73h16.78v5.68Z"/>
      <path d="M218.29,32.14h-24.09V.36h24.09v5.68h-16.78v7.42h15.41v5.26h-15.41v7.73h16.78v5.68Z"/>
      <polygon points="149.12 .36 141.67 21.72 141.27 21.72 133.82 .36 124.13 .36 124.13 32.14 130.48 32.14 130.48 10.89 130.85 10.89 138.51 32.14 144.43 32.14 152.09 10.89 152.45 10.89 152.45 32.14 158.81 32.14 158.81 .36 149.12 .36"/>
      <path d="M172.42,32.14V.36h7.32v31.78h-7.32Z"/>
      <path d="M238.95,32.14h-7.32V.36h14.68c1.92,0,3.65.24,5.18.7,1.53.47,2.83,1.15,3.9,2.03,1.07.88,1.89,1.95,2.46,3.2.57,1.26.86,2.68.86,4.26,0,1.01-.14,1.99-.42,2.92-.28.93-.69,1.79-1.24,2.58-.54.79-1.21,1.48-2,2.08-.79.6-1.69,1.09-2.69,1.45l7.36,12.55h-8.28l-6.52-11.52h-5.98v11.52ZM238.95,15.51h6.42c1.86,0,3.29-.43,4.31-1.28,1.02-.85,1.53-2.05,1.53-3.59,0-.75-.14-1.43-.41-2.04-.28-.61-.67-1.13-1.18-1.55-.51-.43-1.13-.75-1.86-.98-.74-.23-1.55-.34-2.46-.34h-6.35v9.78Z"/>
    </g>
    <g>
      <path d="M271.71,33.2h-4.27l12.76-31.93h4.03l12.71,31.93h-4.48l-3.67-9.84h-13.4l-3.67,9.84ZM282.18,5.87h-.14l-5.46,14.46h11.07l-5.46-14.46Z"/>
      <path d="M301.19,16.88c0-2.24.79-3.93,2.38-5.09,1.58-1.15,3.55-1.73,5.89-1.73,1.18,0,2.27.16,3.26.48s1.83.75,2.52,1.3c.69.55,1.22,1.21,1.59,1.98.37.77.56,1.61.56,2.52h-3.18c-.05-.58-.25-1.13-.6-1.64-.34-.51-.89-.94-1.65-1.3s-1.64-.54-2.66-.54c-.94,0-1.77.14-2.48.42s-1.28.7-1.7,1.26c-.42.56-.63,1.22-.63,1.96,0,.53.11.99.33,1.37.22.38.47.69.75.9.28.22.69.43,1.22.63.54.2.98.33,1.32.4.34.07.85.17,1.51.3.05,0,.1,0,.15.02.05.01.1.02.15.02s.11.02.16.06c.79.13,1.48.27,2.07.41.58.14,1.2.32,1.85.54.65.22,1.19.48,1.63.79.44.31.85.67,1.24,1.09.39.42.68.93.86,1.51.18.58.27,1.23.27,1.95,0,2.2-.81,3.92-2.44,5.17-1.63,1.25-3.78,1.87-6.46,1.87-2.48,0-4.48-.55-6.01-1.64-1.53-1.09-2.3-2.63-2.3-4.62h3.34c.33,2.27,2.04,3.4,5.13,3.4,1.22,0,2.24-.17,3.07-.52.83-.34,1.42-.78,1.78-1.32.36-.54.54-1.18.54-1.92,0-.5-.1-.95-.31-1.33-.21-.38-.45-.69-.74-.92-.29-.23-.73-.45-1.3-.67-.58-.21-1.08-.36-1.51-.46-.43-.09-1.04-.23-1.84-.4-1.05-.21-1.88-.39-2.48-.55-.61-.15-1.3-.39-2.07-.73-.77-.33-1.35-.7-1.76-1.1-.4-.4-.74-.93-1.01-1.57-.27-.64-.41-1.41-.41-2.3Z"/>
      <path d="M323.44,16.88c0-2.24.79-3.93,2.38-5.09,1.58-1.15,3.55-1.73,5.89-1.73,1.18,0,2.27.16,3.26.48s1.83.75,2.52,1.3c.69.55,1.22,1.21,1.59,1.98.37.77.56,1.61.56,2.52h-3.18c-.05-.58-.25-1.13-.6-1.64-.34-.51-.89-.94-1.65-1.3s-1.64-.54-2.66-.54c-.94,0-1.77.14-2.48.42s-1.28.7-1.7,1.26c-.42.56-.63,1.22-.63,1.96,0,.53.11.99.33,1.37.22.38.47.69.75.9.28.22.69.43,1.22.63.54.2.98.33,1.32.4.34.07.85.17,1.51.3.05,0,.1,0,.15.02.05.01.1.02.15.02s.11.02.16.06c.79.13,1.48.27,2.07.41.58.14,1.2.32,1.85.54.65.22,1.19.48,1.63.79.44.31.85.67,1.24,1.09.39.42.68.93.86,1.51.18.58.27,1.23.27,1.95,0,2.2-.81,3.92-2.44,5.17-1.63,1.25-3.78,1.87-6.46,1.87-2.48,0-4.48-.55-6.01-1.64-1.53-1.09-2.3-2.63-2.3-4.62h3.34c.33,2.27,2.04,3.4,5.13,3.4,1.22,0,2.24-.17,3.07-.52.83-.34,1.42-.78,1.78-1.32.36-.54.54-1.18.54-1.92,0-.5-.1-.95-.31-1.33-.21-.38-.45-.69-.74-.92-.29-.23-.73-.45-1.3-.67-.58-.21-1.08-.36-1.51-.46-.43-.09-1.04-.23-1.84-.4-1.05-.21-1.88-.39-2.48-.55-.61-.15-1.3-.39-2.07-.73-.77-.33-1.35-.7-1.76-1.1-.4-.4-.74-.93-1.01-1.57-.27-.64-.41-1.41-.41-2.3Z"/>
      <path d="M345.7,3.34c0-.74.25-1.35.74-1.84.5-.48,1.1-.73,1.82-.73s1.35.24,1.84.73.73,1.1.73,1.84c0,.5-.11.95-.33,1.33-.22.38-.53.68-.92.88-.4.21-.83.31-1.31.31-.72,0-1.32-.24-1.82-.72-.5-.48-.74-1.08-.74-1.81ZM346.58,33.13V10.42h3.4v22.71h-3.4Z"/>
      <path d="M357.39,16.88c0-2.24.79-3.93,2.38-5.09,1.58-1.15,3.55-1.73,5.89-1.73,1.18,0,2.27.16,3.26.48s1.83.75,2.52,1.3c.69.55,1.22,1.21,1.59,1.98.37.77.56,1.61.56,2.52h-3.18c-.05-.58-.25-1.13-.6-1.64-.34-.51-.89-.94-1.65-1.3s-1.64-.54-2.66-.54c-.94,0-1.77.14-2.48.42s-1.28.7-1.7,1.26c-.42.56-.63,1.22-.63,1.96,0,.53.11.99.33,1.37.22.38.47.69.75.9.28.22.69.43,1.22.63.54.2.98.33,1.32.4.34.07.85.17,1.51.3.05,0,.1,0,.15.02.05.01.1.02.15.02s.11.02.16.06c.79.13,1.48.27,2.07.41.58.14,1.2.32,1.85.54.65.22,1.19.48,1.63.79.44.31.85.67,1.24,1.09.39.42.68.93.86,1.51.18.58.27,1.23.27,1.95,0,2.2-.81,3.92-2.44,5.17-1.63,1.25-3.78,1.87-6.46,1.87-2.48,0-4.48-.55-6.01-1.64-1.53-1.09-2.3-2.63-2.3-4.62h3.34c.33,2.27,2.04,3.4,5.13,3.4,1.22,0,2.24-.17,3.07-.52.83-.34,1.42-.78,1.78-1.32.36-.54.54-1.18.54-1.92,0-.5-.1-.95-.31-1.33-.21-.38-.45-.69-.74-.92-.29-.23-.73-.45-1.3-.67-.58-.21-1.08-.36-1.51-.46-.43-.09-1.04-.23-1.84-.4-1.05-.21-1.88-.39-2.48-.55-.61-.15-1.3-.39-2.07-.73-.77-.33-1.35-.7-1.76-1.1-.4-.4-.74-.93-1.01-1.57-.27-.64-.41-1.41-.41-2.3Z"/>
      <path d="M381.91,10.42V1.27h3.4v9.15h5.17v2.9h-5.17v13.65c0,.94.12,1.66.35,2.16.23.5.61.84,1.13,1.03.52.19,1.28.29,2.28.29.61,0,1.19-.03,1.75-.08v2.8c-.53.11-1.4.16-2.62.16-1.31,0-2.38-.12-3.21-.37-.83-.25-1.46-.66-1.91-1.23-.44-.58-.75-1.25-.91-2.01-.17-.76-.25-1.73-.25-2.91v-13.49h-3.48v-2.9h3.48Z"/>
    </g>
  </g>
</svg>