<?xml version="1.0" encoding="UTF-8"?>
<svg id="_レイヤー_1" data-name="レイヤー_1" xmlns="http://www.w3.org/2000/svg" version="1.1" viewBox="0 0 200 200">
  <!-- Generator: Adobe Illustrator 30.3.0, SVG Export Plug-In . SVG Version: 2.1.3 Build 182)  -->
  <path d="M46.9,73.64v78.65h25.66V62.49h-14.16c-7.96,0-11.5,3.18-11.5,11.15Z" fill="#003781"/>
  <path d="M101.77,36.93h-23.9v11.5h2.65c4.43,0,6.2,1.68,6.2,6.81v97.05h26.55V48.07c0-8.41-3.54-11.15-11.5-11.15Z" fill="#003781"/>
  <path d="M100,.03C43.36.03,0,42.85,0,99.91s43.36,100.05,100,100.05,100-42.82,100-100.05S157.52.03,100,.03ZM100,184.22c-47.79,0-83.18-35.57-83.18-84.31S52.21,15.61,100,15.61s83.18,35.56,83.18,84.31-35.4,84.31-83.18,84.31Z" fill="#003781"/>
  <path d="M141.59,62.49h-14.16v89.79h25.66v-78.65c0-7.96-3.54-11.15-11.51-11.15Z" fill="#003781"/>
</svg>