<?xml version="1.0" encoding="UTF-8"?>
<svg id="_レイヤー_1" data-name="レイヤー_1" xmlns="http://www.w3.org/2000/svg" version="1.1" viewBox="0 0 200 200">
  <!-- Generator: Adobe Illustrator 30.3.0, SVG Export Plug-In . SVG Version: 2.1.3 Build 182)  -->
  <polygon points="130.68 108.21 150.92 0 89.06 0 51.66 200 113.51 200 113.51 108.21 130.68 108.21" fill="#9b001b"/>
  <path d="M179.57,0h-15.94l-37.4,200h53.35c11.28,0,20.43-9.15,20.43-20.43V20.43c0-11.28-9.15-20.43-20.43-20.43Z" fill="#9b001b"/>
  <path d="M20.43,0C9.15,0,0,9.15,0,20.43v159.15c0,11.28,9.15,20.43,20.43,20.43h18.52L76.35,0H20.43Z" fill="#9b001b"/>
  <polygon points="76.35 0 38.95 200 51.66 200 89.06 0 76.35 0" fill="#fff"/>
  <polygon points="150.92 0 130.68 108.21 113.51 108.21 113.51 200 126.23 200 163.63 0 150.92 0" fill="#fff"/>
</svg>